<svg width="368" height="368" viewBox="0 0 368 368" fill="none" xmlns="http://www.w3.org/2000/svg">
<path d="M239.2 55.6379L313.361 132.448L311.487 239.2L234.677 313.361L127.925 311.487L53.7642 234.677L55.638 127.924L132.448 53.7642L239.2 55.6379Z" fill="#D9D9D9"/>
<path d="M147.915 135.336V89.1404H163.509V136.391C163.509 140.378 162.767 144.169 161.282 147.765C159.875 151.36 157.725 154.565 154.833 157.379C152.019 160.115 148.502 162.264 144.281 163.828C140.138 165.391 135.292 166.172 129.742 166.172C125.443 166.172 121.261 165.625 117.196 164.531C113.21 163.437 109.614 161.795 106.41 159.607C103.205 157.34 100.625 154.526 98.6712 151.165C96.7171 147.725 95.6618 143.7 95.5055 139.088H110.279C111.139 143.544 113.327 146.944 116.845 149.289C120.44 151.556 124.739 152.689 129.742 152.689C134.041 152.689 137.519 151.946 140.177 150.461C142.835 148.898 144.789 146.827 146.04 144.247C147.29 141.589 147.915 138.619 147.915 135.336ZM224.903 89.1404C233.423 89.1404 240.536 90.1565 246.242 92.1888C251.948 94.2211 256.482 96.996 259.843 100.513C263.282 103.953 265.705 107.939 267.112 112.473C268.597 117.006 269.34 121.774 269.34 126.777C269.34 131.78 268.519 136.587 266.878 141.199C265.314 145.81 262.774 149.914 259.256 153.51C255.817 157.027 251.244 159.841 245.538 161.952C239.91 163.984 233.032 165 224.903 165H181.521V89.1404H224.903ZM197.115 151.634H224.551C230.179 151.634 234.83 150.969 238.503 149.64C242.255 148.233 245.226 146.358 247.414 144.013C249.603 141.668 251.166 139.01 252.104 136.04C253.042 133.069 253.511 129.982 253.511 126.777C253.511 123.572 253.042 120.524 252.104 117.632C251.166 114.74 249.603 112.16 247.414 109.893C245.226 107.627 242.255 105.829 238.503 104.5C234.83 103.171 230.179 102.507 224.551 102.507H197.115V151.634ZM103.969 179.14V241.985H154.386V255H88.3749V179.14H103.969ZM227.844 247.262H220.458L264.074 179.14H279.668V255H264.074V199.893L267.826 200.949L233.003 255H215.533L180.711 201.183L184.463 200.128V255H168.869V179.14H184.463L227.844 247.262Z" fill="#342A48"/>
</svg>
