<svg width="259" height="259" viewBox="0 0 259 259" fill="none" xmlns="http://www.w3.org/2000/svg">
<path d="M183.618 0.936098L258.755 76.7907L258.248 183.558L182.394 258.696L75.6262 258.188L0.48877 182.334L0.99591 75.5664L76.8505 0.428955L183.618 0.936098Z" fill="#D9D9D9"/>
<path d="M170.544 187.985L210.134 125.14H225.728V201H210.134V150L179.063 201H161.593L130.522 150V201H114.928V125.14H130.522L170.544 187.985Z" fill="#342A48"/>
<path d="M50.0286 125.14V187.985H100.445V201H34.4346V125.14H50.0286Z" fill="#342A48"/>
<path d="M170.962 35.1401C179.482 35.1401 186.595 36.1563 192.302 38.1886C198.008 40.2209 202.541 42.9958 205.902 46.5132C209.342 49.9525 211.765 53.9389 213.172 58.4725C214.657 63.0061 215.399 67.7742 215.399 72.7768C215.399 77.7794 214.579 82.5866 212.937 87.1984C211.374 91.8101 208.834 95.9138 205.316 99.5094C201.877 103.027 197.304 105.841 191.598 107.951C185.97 109.984 179.092 111 170.962 111H127.581V35.1401H170.962ZM143.175 97.6335H170.611C176.239 97.6335 180.889 96.9691 184.563 95.6402C188.315 94.2333 191.285 92.3573 193.474 90.0123C195.663 87.6674 197.226 85.0097 198.164 82.0394C199.102 79.0692 199.571 75.9816 199.571 72.7768C199.571 69.572 199.102 66.5236 198.164 63.6315C197.226 60.7393 195.663 58.1599 193.474 55.8931C191.285 53.6263 188.315 51.8285 184.563 50.4997C180.889 49.1708 176.239 48.5064 170.611 48.5064H143.175V97.6335Z" fill="#342A48"/>
<path d="M93.9752 81.336V48.5064H56.3385V35.1401H109.569V82.3912C109.569 86.3776 108.827 90.1687 107.341 93.7643C105.934 97.3599 103.785 100.565 100.893 103.379C98.0789 106.114 94.5614 108.264 90.3405 109.827C86.1977 111.391 81.3514 112.172 75.8017 112.172C71.5026 112.172 67.3207 111.625 63.2561 110.531C59.2697 109.436 55.6741 107.795 52.4693 105.606C49.2645 103.34 46.685 100.526 44.7309 97.1645C42.7768 93.7252 41.7215 89.6997 41.5652 85.0879H56.3385C57.1983 89.5433 59.3869 92.9435 62.9044 95.2885C66.5 97.5553 70.7991 98.6887 75.8017 98.6887C80.1008 98.6887 83.5791 97.9461 86.2368 96.461C88.8944 94.8977 90.8485 92.8263 92.0992 90.2468C93.3498 87.5892 93.9752 84.6189 93.9752 81.336Z" fill="#342A48"/>
</svg>
